# xmcd
#
# Track frame offsets:
# 150
# 4811
# 20003
# 23077
# 34081
# 41173
# 53050
# 57947
# 72606
# 78063
# 88681
# 93365
# 105199
# 109326
# 124042
# 129910
# 143536
# 150262
# 158261
# 161143
# 173530
# 178591
# 189272
# 195575
#
# Disc length: 2781 seconds
#
#
# Revision: 0
# Processed by: cddbd v1.5.1PL0 Copyright (c) Steve Scherf et al.
# Submitted via: FreeRIP 2.52 
#
DISCID=200adb18
DTITLE=Jessie Ann - Amores - melodias del corazón
DYEAR=2000
DGENRE=
TTITLE0=Jessia Ann - Wort
TTITLE1=Fina Estampa
TTITLE2=Jessia Ann - Wort
TTITLE3=Yo Vendo
TTITLE4=Jessia Ann - Wort
TTITLE5=Para un Bebe
TTITLE6=Jessia Ann - Wort
TTITLE7=Duerme Negrito
TTITLE8=Jessia Ann - Wort
TTITLE9=Adelita
TTITLE10=Jessia Ann - Wort
TTITLE11=Quizás, quizás
TTITLE12=Jessia Ann - Wort
TTITLE13=Hasta la eternidad
TTITLE14=Jessia Ann - Wort
TTITLE15=Cucurrucucu
TTITLE16=Jessia Ann - Wort
TTITLE17=O Pato
TTITLE18=Jessia Ann - Wort
TTITLE19=Samba de una nota
TTITLE20=Jessia Ann - Wort
TTITLE21=Moliendo café
TTITLE22=Jessia Ann - Wort
TTITLE23=Cielito Lindo
EXTD=
EXTT0=
EXTT1=
EXTT2=
EXTT3=
EXTT4=
EXTT5=
EXTT6=
EXTT7=
EXTT8=
EXTT9=
EXTT10=
EXTT11=
EXTT12=
EXTT13=
EXTT14=
EXTT15=
EXTT16=
EXTT17=
EXTT18=
EXTT19=
EXTT20=
EXTT21=
EXTT22=
EXTT23=
PLAYORDER=
